<svg viewBox="0 0 32 32" id="Camada_1" version="1.1" xml:space="preserve" xmlns="http://www.w3.org/2000/svg" xmlns:xlink="http://www.w3.org/1999/xlink" fill="#ff" stroke="#ff"><g id="SVGRepo_bgCarrier" stroke-width="0"></g><g id="SVGRepo_tracerCarrier" stroke-linecap="round" stroke-linejoin="round"></g><g id="SVGRepo_iconCarrier"> <style type="text/css"> .st0{fill:#FFFFFF;} .st1{fill-rule:evenodd;clip-rule:evenodd;fill:#FFFFFF;} .st2{fill:#030708;} </style> <path d="M6,2h20c2.2,0,4,1.8,4,4v20c0,2.2-1.8,4-4,4H6c-2.2,0-4-1.8-4-4V6C2,3.8,3.8,2,6,2z"></path> <g> <path class="st0" d="M15.6,14.5L13,13L7,23.4l-0.8,3.5c-0.1,0.5,0.5,0.8,0.8,0.5L9.6,25L15.6,14.5z"></path> <path class="st0" d="M19,13l-2.6,1.5l6,10.4l2.6,2.4c0.4,0.3,0.9,0,0.8-0.5L25,23.4L19,13z"></path> <path class="st1" d="M19.4,19c-1,0.6-2.1,1-3.4,1c-3.3,0-6-2.7-6-6c0-0.3,0-0.7,0.1-1h-3C7,13.3,7,13.7,7,14c0,5,4,9,9,9 c1.7,0,3.4-0.5,4.7-1.4L19.4,19z"></path> <path class="st0" d="M19,8h-1V6h-4v2h-1c-0.6,0-1,0.4-1,1v4l3.2,4c0.4,0.5,1.2,0.5,1.6,0l3.2-4V9C20,8.4,19.6,8,19,8z"></path> <circle class="st2" cx="16" cy="12" r="2"></circle> </g> </g></svg>